<svg width="14" height="13" viewBox="0 0 14 13" fill="none" xmlns="http://www.w3.org/2000/svg">
<path d="M6.1673 1.57614C6.42911 0.770391 7.56902 0.770388 7.83083 1.57614L8.70079 4.25359C8.81787 4.61393 9.15366 4.8579 9.53255 4.8579L12.3478 4.8579C13.195 4.8579 13.5473 5.94203 12.8619 6.44001L10.5843 8.09477C10.2777 8.31747 10.1495 8.71222 10.2666 9.07257L11.1365 11.75C11.3983 12.5558 10.4761 13.2258 9.7907 12.7278L7.51312 11.0731C7.2066 10.8504 6.79153 10.8504 6.48501 11.0731L4.20743 12.7278C3.52202 13.2258 2.5998 12.5558 2.86161 11.75L3.73157 9.07257C3.84865 8.71223 3.72039 8.31747 3.41386 8.09477L1.13628 6.44001C0.450871 5.94203 0.803123 4.8579 1.65034 4.8579L4.46558 4.8579C4.84447 4.8579 5.18026 4.61394 5.29734 4.25359L6.1673 1.57614Z" fill="#3A66FF"/>
</svg>
