<svg width="16" height="21" viewBox="0 0 16 21" fill="none" xmlns="http://www.w3.org/2000/svg">
<path d="M6.67947 15.3743C6.68447 15.2643 6.86647 15.2203 6.91947 15.3163C7.17347 15.7663 7.60547 16.4273 8.09647 16.7283C8.58647 17.0283 9.37147 17.1143 9.88747 17.1363C9.99747 17.1413 10.0415 17.3223 9.94547 17.3763C9.49547 17.6303 8.83447 18.0623 8.53347 18.5523C8.23247 19.0423 8.14747 19.8283 8.12547 20.3443C8.12047 20.4543 7.93847 20.4973 7.88547 20.4013C7.63147 19.9513 7.19947 19.2913 6.70947 18.9903C6.21947 18.6893 5.43347 18.6043 4.91747 18.5823C4.80747 18.5773 4.76447 18.3953 4.86047 18.3423C5.31047 18.0883 5.97047 17.6563 6.27147 17.1653C6.57247 16.6753 6.65747 15.8893 6.67947 15.3743ZM14.8945 14.3743C14.8865 14.2643 14.6945 14.2183 14.6375 14.3123C14.4655 14.5953 14.2165 14.9353 13.9405 15.1053C13.6645 15.2753 13.2475 15.3413 12.9175 15.3673C12.8075 15.3753 12.7625 15.5673 12.8555 15.6243C13.1385 15.7963 13.4795 16.0443 13.6485 16.3213C13.8175 16.5983 13.8855 17.0143 13.9105 17.3443C13.9195 17.4543 14.1105 17.4993 14.1685 17.4053C14.3405 17.1233 14.5885 16.7823 14.8655 16.6133C15.1425 16.4443 15.5575 16.3763 15.8875 16.3513C15.9975 16.3423 16.0435 16.1513 15.9495 16.0933C15.6665 15.9213 15.3255 15.6733 15.1565 15.3963C14.9875 15.1193 14.9205 14.7043 14.8945 14.3743ZM11.1065 2.86127L10.8645 2.55527C9.92747 1.37227 9.45947 0.78027 8.91447 0.86727C8.36947 0.95527 8.10847 1.66327 7.58747 3.08027L7.45347 3.44627C7.30447 3.84927 7.23047 4.05027 7.08947 4.19827C6.94647 4.34627 6.75347 4.42327 6.36547 4.57827L6.01247 4.71927L5.76447 4.81927C4.56447 5.29927 3.96047 5.57227 3.88347 6.10227C3.80147 6.66727 4.37347 7.15127 5.51747 8.11827L5.81347 8.36827C6.13847 8.64327 6.30147 8.78127 6.39347 8.96827C6.48747 9.15527 6.50047 9.37127 6.52747 9.80327L6.55147 10.1963C6.64447 11.7163 6.69147 12.4763 7.18547 12.7383C7.67947 13.0003 8.29347 12.5913 9.52147 11.7723L9.83947 11.5603C10.1895 11.3273 10.3635 11.2103 10.5625 11.1793C10.7625 11.1473 10.9645 11.2033 11.3685 11.3153L11.7365 11.4173C13.1585 11.8113 13.8695 12.0083 14.2565 11.6053C14.6445 11.2023 14.4525 10.4653 14.0665 8.99227L13.9675 8.61127C13.8575 8.19227 13.8035 7.98327 13.8335 7.77627C13.8635 7.56927 13.9755 7.38727 14.1985 7.02427L14.4015 6.69427C15.1875 5.41827 15.5805 4.78027 15.3255 4.26827C15.0715 3.75827 14.3385 3.71127 12.8715 3.62027L12.4925 3.59627C12.0755 3.57027 11.8675 3.55727 11.6865 3.46127C11.5065 3.36527 11.3725 3.19727 11.1065 2.86127ZM5.23747 12.1853C3.10047 13.2293 1.32147 14.8833 0.650473 16.8593C-0.101527 12.1523 0.942473 9.11227 2.61547 7.22227C2.75947 7.51727 2.94747 7.76127 3.11547 7.95227C3.46547 8.34827 3.96747 8.77227 4.47747 9.20327L4.84447 9.51327L5.01447 9.65827C5.01947 9.72227 5.02447 9.79827 5.02947 9.89527L5.05947 10.3803C5.09947 11.0353 5.13947 11.6743 5.23747 12.1853Z" fill="#1F2026"/>
</svg>
