<svg width="22" height="23" viewBox="0 0 22 23" fill="none" xmlns="http://www.w3.org/2000/svg">
<path d="M1.03213 20.4186C0.964563 20.7479 1.06693 21.089 1.30461 21.3267C1.54229 21.5644 1.88348 21.6668 2.21274 21.5992L6.74229 20.6697C8.03497 21.2802 9.47911 21.6196 10.9985 21.6196C12.9737 21.6196 14.9046 21.0339 16.5469 19.9365C18.1892 18.8392 19.4693 17.2794 20.2251 15.4546C20.981 13.6297 21.1788 11.6217 20.7934 9.68448C20.4081 7.74723 19.457 5.96775 18.0603 4.57107C16.6636 3.17439 14.8841 2.22324 12.9469 1.83789C11.0096 1.45255 9.00159 1.65032 7.17674 2.4062C5.35189 3.16208 3.79216 4.44211 2.6948 6.08444C1.59744 7.72676 1.01172 9.65761 1.01172 11.6328C1.01172 13.1532 1.3512 14.5966 1.96165 15.8891L1.03213 20.4186Z" stroke="#1F2026" stroke-width="2" stroke-linecap="round" stroke-linejoin="round"/>
</svg>
