<svg width="16" height="21" viewBox="0 0 16 21" fill="none" xmlns="http://www.w3.org/2000/svg">
<path d="M8.4721 0.794427L8.47206 0.794383C8.3197 0.642211 8.11317 0.556738 7.89783 0.556738C7.68249 0.556738 7.47596 0.642211 7.3236 0.794383L7.32356 0.794427L4.23567 3.88231L4.23563 3.88227L4.23327 3.8848C4.08955 4.03881 4.01126 4.24261 4.0149 4.45322C4.01854 4.66383 4.10382 4.86481 4.25277 5.01376L4.25277 5.01376C4.40172 5.16271 4.6027 5.24799 4.81331 5.25163C5.02392 5.25527 5.22772 5.17698 5.38173 5.03326L5.38177 5.03331L5.38422 5.03086L7.08524 3.32984V13.2452C7.08524 13.4607 7.17085 13.6674 7.32324 13.8198C7.47563 13.9722 7.68232 14.0578 7.89783 14.0578C8.11334 14.0578 8.32003 13.9722 8.47242 13.8198C8.62481 13.6674 8.71042 13.4607 8.71042 13.2452V3.32984L10.4103 5.02968C10.5095 5.13561 10.6354 5.21302 10.7747 5.25384C10.9147 5.29482 11.063 5.2974 11.2043 5.26132C11.3457 5.2255 11.4749 5.15221 11.5782 5.04917C11.6816 4.94608 11.7552 4.81701 11.7914 4.67557C11.8276 4.53413 11.8249 4.38555 11.7837 4.2455C11.7427 4.10605 11.665 3.98019 11.5587 3.88105L8.4721 0.794427ZM1.82205 18.9459V8.96966C1.82205 8.93318 1.83654 8.8982 1.86234 8.87241C1.88813 8.84662 1.92311 8.83213 1.95958 8.83213H4.33488C4.5504 8.83213 4.75708 8.74651 4.90947 8.59412C5.06186 8.44173 5.14747 8.23505 5.14747 8.01954C5.14747 7.80402 5.06186 7.59734 4.90947 7.44495C4.75708 7.29256 4.55039 7.20695 4.33488 7.20695H1.95958C0.98654 7.20695 0.196875 7.99661 0.196875 8.96966V18.9459C0.196875 19.4134 0.382588 19.8618 0.71316 20.1923C1.04373 20.5229 1.49208 20.7086 1.95958 20.7086H13.8361C14.3036 20.7086 14.7519 20.5229 15.0825 20.1923C15.4131 19.8618 15.5988 19.4134 15.5988 18.9459V8.96966C15.5988 7.99661 14.8091 7.20695 13.8361 7.20695H11.4608C11.2453 7.20695 11.0386 7.29256 10.8862 7.44495C10.7338 7.59734 10.6482 7.80402 10.6482 8.01954C10.6482 8.23505 10.7338 8.44173 10.8862 8.59412C11.0386 8.74651 11.2453 8.83213 11.4608 8.83213H13.8361C13.8726 8.83213 13.9075 8.84662 13.9333 8.87241C13.9591 8.8982 13.9736 8.93318 13.9736 8.96966V18.9459C13.9736 18.9824 13.9591 19.0174 13.9333 19.0432C13.9075 19.069 13.8726 19.0834 13.8361 19.0834H1.95958C1.8837 19.0834 1.82205 19.0218 1.82205 18.9459Z" fill="#1F2026" stroke="#1F2026" stroke-width="0.2"/>
</svg>
