<svg width="89" height="54" viewBox="0 0 89 54" fill="none" xmlns="http://www.w3.org/2000/svg">
<path d="M8.11515 27.7035C4.5472 27.7035 1.98811 25.981 1.47137 23.0528H4.30113C4.71944 24.5538 5.82674 25.2428 8.16436 25.2428C9.96064 25.2428 11.0679 24.7015 11.0679 23.6926C11.0679 22.5607 9.78839 22.3885 7.52459 21.8471C3.73518 20.9121 2.13575 20.1493 2.13575 17.8855C2.13575 15.1541 4.44877 13.5793 7.84448 13.5793C11.314 13.5793 13.2579 15.228 13.7501 17.6886H10.9449C10.5512 16.5813 9.51772 16.04 7.79526 16.04C5.99898 16.04 4.9409 16.6551 4.9409 17.5902C4.9409 18.4514 5.77752 18.6729 8.13975 19.2388C11.8061 20.1001 13.9223 20.7398 13.9223 23.3727C13.9223 26.2763 11.314 27.7035 8.11515 27.7035ZM26.299 24.4554L26.7911 26.7192C26.053 27.1621 24.4781 27.7035 22.9279 27.7035C20.1474 27.7035 17.982 25.9564 17.982 22.2162V16.4829H15.4721V13.8746H17.982V10.7988L20.7625 10.1836V13.8746H26.3236V16.4829H20.7625V22.0686C20.7625 24.0371 21.673 25.1198 23.42 25.1198C24.2813 25.1198 25.2409 24.8245 26.299 24.4554ZM39.2203 13.8746H42.0009V27.4082H39.2203V25.1444C38.2361 26.6946 36.612 27.7035 34.4959 27.7035C30.8787 27.7035 28.2458 24.7753 28.2458 20.6414C28.2458 16.5075 30.9279 13.5793 34.4713 13.5793C36.612 13.5793 38.2361 14.6374 39.2203 16.1876V13.8746ZM35.0864 25.046C37.4487 25.046 39.245 23.2497 39.245 20.6414C39.245 18.0577 37.4487 16.2368 35.0864 16.2368C32.7242 16.2368 31.051 18.0577 31.051 20.6414C31.051 23.2497 32.7488 25.046 35.0864 25.046ZM52.5288 13.5793C52.8733 13.5793 53.144 13.6039 53.3409 13.6531V16.4829C53.0948 16.4583 52.8733 16.4337 52.5042 16.4337C49.9698 16.4337 48.0258 17.8609 48.0258 21.2073V27.4082H45.2453V13.8746H48.0258V16.5567C48.8379 14.662 50.3881 13.5793 52.5288 13.5793Z" fill="#3A66FF"/>
<path d="M53.7671 44.0414L54.2592 46.3052C53.521 46.7481 51.9462 47.2894 50.396 47.2894C47.6154 47.2894 45.45 45.5424 45.45 41.8022V36.0688H42.9402V33.4605H45.45V30.3847L48.2306 29.7695V33.4605H53.7917V36.0688H48.2306V41.6545C48.2306 43.623 49.141 44.7057 50.8881 44.7057C51.7493 44.7057 52.709 44.4105 53.7671 44.0414ZM66.6884 33.4605H69.4689V46.9941H66.6884V44.7303C65.7041 46.2806 64.0801 47.2894 61.9639 47.2894C58.3468 47.2894 55.7139 44.3612 55.7139 40.2273C55.7139 36.0934 58.396 33.1652 61.9393 33.1652C64.0801 33.1652 65.7041 34.2233 66.6884 35.7735V33.4605ZM62.5545 44.6319C64.9167 44.6319 66.713 42.8356 66.713 40.2273C66.713 37.6436 64.9167 35.8228 62.5545 35.8228C60.1923 35.8228 58.519 37.6436 58.519 40.2273C58.519 42.8356 60.2169 44.6319 62.5545 44.6319ZM80.366 33.1652C83.9093 33.1652 86.5914 36.0934 86.5914 40.2273C86.5914 44.3612 83.9585 47.2894 80.3414 47.2894C78.2252 47.2894 76.6012 46.2559 75.6169 44.7303V53.1458H72.8364V33.4605H75.6169V35.7735C76.6012 34.2233 78.2252 33.1652 80.366 33.1652ZM79.7508 44.6319C82.0884 44.6319 83.7863 42.8356 83.7863 40.2273C83.7863 37.6436 82.1131 35.8228 79.7508 35.8228C77.3886 35.8228 75.5923 37.6436 75.5923 40.2273C75.5923 42.8356 77.3886 44.6319 79.7508 44.6319Z" fill="#3A66FF"/>
<path d="M60.826 3.02106C61.135 2.07012 62.4803 2.07012 62.7893 3.02106L64.183 7.31028C64.3212 7.73555 64.7175 8.02348 65.1647 8.02348L69.6748 8.02348C70.6747 8.02348 71.0904 9.30301 70.2815 9.89073L66.6328 12.5415C66.271 12.8043 66.1196 13.2702 66.2578 13.6955L67.6515 17.9846C67.9605 18.9355 66.8721 19.7263 66.0632 19.1386L62.4143 16.4877C62.0526 16.2249 61.5627 16.2249 61.201 16.4877L57.5521 19.1386C56.7432 19.7263 55.6548 18.9355 55.9638 17.9846L57.3575 13.6955C57.4957 13.2702 57.3443 12.8043 56.9825 12.5415L53.3338 9.89073C52.5249 9.30301 52.9406 8.02348 53.9405 8.02348L58.4506 8.02348C58.8978 8.02348 59.2941 7.73555 59.4323 7.31028L60.826 3.02106Z" fill="#3A66FF"/>
</svg>
