<svg width="322" height="193" viewBox="0 0 322 193" fill="none" xmlns="http://www.w3.org/2000/svg">
<path d="M27.8225 99.5513C21.2796 99.5513 15.8171 98.0506 11.4352 95.0493C7.1132 92.0479 4.47201 87.876 3.51158 82.5336H13.8662C14.6466 85.2949 16.1473 87.3358 18.3683 88.6564C20.5893 89.9169 23.8007 90.5472 28.0026 90.5472C31.3041 90.5472 33.8853 90.067 35.7461 89.1066C37.667 88.0861 38.6274 86.6755 38.6274 84.8747C38.6274 83.6741 38.1472 82.6837 37.1868 81.9033C36.2863 81.123 35.2059 80.5527 33.9453 80.1926C32.7448 79.8324 30.7639 79.3222 28.0026 78.6619C26.9822 78.4218 26.2018 78.2417 25.6616 78.1216C18.2782 76.3208 13.1459 74.46 10.2646 72.5391C7.38333 70.5582 5.94268 67.5869 5.94268 63.6251C5.94268 58.7029 7.83353 54.8611 11.6152 52.0999C15.457 49.2786 20.5292 47.868 26.8321 47.868C33.0149 47.868 37.9071 49.2186 41.5087 51.9198C45.1703 54.561 47.4814 58.2227 48.4418 62.9048H38.1772C36.7365 58.883 32.8948 56.8721 26.652 56.8721C23.4105 56.8721 20.8594 57.3823 18.9986 58.4027C17.1377 59.4232 16.2073 60.8038 16.2073 62.5446C16.2073 64.0453 16.9576 65.1558 18.4583 65.8761C19.959 66.5364 23.1104 67.4368 27.9126 68.5773C31.034 69.2977 33.4951 69.9279 35.2959 70.4682C37.1567 70.9484 39.0776 71.6087 41.0585 72.4491C43.0394 73.2895 44.5401 74.1899 45.5605 75.1503C46.581 76.1107 47.4214 77.3113 48.0817 78.7519C48.742 80.1325 49.0721 81.7833 49.0721 83.7041C49.0721 88.8064 47.0612 92.7382 43.0394 95.4995C39.0776 98.2007 34.0053 99.5513 27.8225 99.5513ZM94.3611 87.6659L96.1619 95.9497C92.1401 98.3507 87.428 99.5513 82.0255 99.5513C76.6831 99.5513 72.3312 97.8405 68.9697 94.419C65.6081 90.9974 63.9274 86.0152 63.9274 79.4722V58.4928H54.7433V48.9485H63.9274V37.6934L74.102 35.4424V48.9485H94.4511V58.4928H74.102V78.932C74.102 86.3753 77.3434 90.097 83.8264 90.097C86.2274 90.097 89.739 89.2867 94.3611 87.6659ZM141.643 48.9485H151.818V98.4708H141.643V90.1871C137.681 96.4299 131.919 99.5513 124.355 99.5513C117.692 99.5513 112.2 97.1502 107.878 92.348C103.616 87.4858 101.485 81.273 101.485 73.7096C101.485 66.2063 103.646 60.0235 107.968 55.1613C112.29 50.2991 117.722 47.868 124.265 47.868C131.829 47.868 137.621 51.0494 141.643 57.4123V48.9485ZM126.516 89.8269C130.898 89.8269 134.53 88.3262 137.411 85.3249C140.292 82.3235 141.733 78.4518 141.733 73.7096C141.733 69.0275 140.292 65.1858 137.411 62.1844C134.53 59.1231 130.898 57.5924 126.516 57.5924C122.194 57.5924 118.653 59.0931 115.891 62.0944C113.13 65.0958 111.749 68.9675 111.749 73.7096C111.749 78.4518 113.13 82.3235 115.891 85.3249C118.653 88.3262 122.194 89.8269 126.516 89.8269ZM190.342 47.868C191.602 47.868 192.593 47.958 193.313 48.1381V58.4928C192.112 58.3727 191.092 58.3127 190.251 58.3127C185.329 58.3127 181.367 59.7834 178.366 62.7247C175.365 65.606 173.864 69.958 173.864 75.7806V98.4708H163.69V48.9485H173.864V58.7629C176.986 51.4996 182.478 47.868 190.342 47.868Z" fill="#3A66FF"/>
<path d="M194.878 159.337L196.679 167.621C192.657 170.022 187.945 171.223 182.543 171.223C177.2 171.223 172.849 169.512 169.487 166.091C166.125 162.669 164.445 157.687 164.445 151.144V130.164H155.261V120.62H164.445V109.365L174.619 107.114V120.62H194.968V130.164H174.619V150.604C174.619 158.047 177.861 161.769 184.344 161.769C186.745 161.769 190.256 160.958 194.878 159.337ZM242.16 120.62H252.335V170.142H242.16V161.859C238.198 168.101 232.436 171.223 224.872 171.223C218.209 171.223 212.717 168.822 208.395 164.02C204.133 159.157 202.002 152.945 202.002 145.381C202.002 137.878 204.163 131.695 208.485 126.833C212.807 121.971 218.239 119.54 224.782 119.54C232.346 119.54 238.138 122.721 242.16 129.084V120.62ZM227.033 161.498C231.415 161.498 235.047 159.998 237.928 156.996C240.81 153.995 242.25 150.123 242.25 145.381C242.25 140.699 240.81 136.857 237.928 133.856C235.047 130.795 231.415 129.264 227.033 129.264C222.712 129.264 219.17 130.765 216.409 133.766C213.647 136.767 212.267 140.639 212.267 145.381C212.267 150.123 213.647 153.995 216.409 156.996C219.17 159.998 222.712 161.498 227.033 161.498ZM292.209 119.54C298.752 119.54 304.185 121.971 308.507 126.833C312.829 131.695 314.99 137.878 314.99 145.381C314.99 152.945 312.829 159.157 308.507 164.02C304.245 168.822 298.782 171.223 292.119 171.223C284.616 171.223 278.853 168.101 274.832 161.859V192.652H264.657V120.62H274.832V129.084C278.853 122.721 284.646 119.54 292.209 119.54ZM289.958 161.498C294.28 161.498 297.822 159.998 300.583 156.996C303.344 153.995 304.725 150.123 304.725 145.381C304.725 140.639 303.344 136.767 300.583 133.766C297.822 130.765 294.28 129.264 289.958 129.264C285.576 129.264 281.945 130.795 279.064 133.856C276.182 136.857 274.742 140.699 274.742 145.381C274.742 150.123 276.182 153.995 279.064 156.996C281.945 159.998 285.576 161.498 289.958 161.498Z" fill="#3A66FF"/>
<path d="M220.707 11.0554C221.838 7.57561 226.761 7.5756 227.891 11.0554L232.991 26.7506C233.497 28.3068 234.947 29.3604 236.583 29.3604H253.086C256.745 29.3604 258.266 34.0424 255.306 36.193L241.955 45.8932C240.631 46.855 240.077 48.5598 240.583 50.1159L245.683 65.8112C246.813 69.2909 242.831 72.1846 239.871 70.034L226.519 60.3338C225.196 59.372 223.403 59.372 222.079 60.3338L208.728 70.034C205.768 72.1846 201.785 69.2909 202.916 65.8112L208.016 50.116C208.521 48.5598 207.967 46.855 206.644 45.8932L193.292 36.193C190.332 34.0424 191.854 29.3604 195.513 29.3604H212.015C213.652 29.3604 215.102 28.3068 215.608 26.7506L220.707 11.0554Z" fill="#3A66FF"/>
</svg>
