<svg width="28" height="29" viewBox="0 0 28 29" fill="none" xmlns="http://www.w3.org/2000/svg">
<path d="M17.5 9.99007H17.5117M14.5833 25.1567H7C6.07174 25.1567 5.1815 24.788 4.52513 24.1316C3.86875 23.4752 3.5 22.585 3.5 21.6567V7.65674C3.5 6.72848 3.86875 5.83824 4.52513 5.18186C5.1815 4.52549 6.07174 4.15674 7 4.15674H21C21.9283 4.15674 22.8185 4.52549 23.4749 5.18186C24.1313 5.83824 24.5 6.72848 24.5 7.65674V15.2401" stroke="#CBD5FB" stroke-width="2.5" stroke-linecap="round" stroke-linejoin="round"/>
<path d="M3.5 19.3232L9.33333 13.4899C10.416 12.448 11.7507 12.448 12.8333 13.4899L17.5 18.1565" stroke="#CBD5FB" stroke-width="2.5" stroke-linecap="round" stroke-linejoin="round"/>
<path d="M16.332 16.9903L17.4987 15.8236C18.2804 15.0723 19.1904 14.8623 20.0444 15.1936M18.6654 22.8236H25.6654M22.1654 19.3236V26.3236" stroke="#CBD5FB" stroke-width="2.5" stroke-linecap="round" stroke-linejoin="round"/>
</svg>
